<svg width="32" height="32" viewBox="0 0 32 32" fill="none" xmlns="http://www.w3.org/2000/svg">
<path d="M0 8C0 3.58172 3.58172 0 8 0H24C28.4183 0 32 3.58172 32 8V24C32 28.4183 28.4183 32 24 32H8C3.58172 32 0 28.4183 0 24V8Z" fill="#2563EB"/>
<path d="M15.4121 9.10254C15.7922 8.96582 16.2078 8.96582 16.5906 9.10254L21.8406 10.9783C22.5352 11.2271 23 11.8861 23 12.6271V19.2662C23 20.0045 22.5352 20.6662 21.8379 20.915L16.5879 22.7908C16.2078 22.9275 15.7922 22.9275 15.4094 22.7908L10.1594 20.915C9.46484 20.6662 9 20.0072 9 19.2662V12.6271C9 11.8889 9.46484 11.2271 10.1621 10.9783L15.4121 9.10254ZM16 10.7514L11.2504 12.4467L16 14.142L20.7496 12.4467L16 10.7514ZM16.875 20.8303L21.25 19.2689V14.1283L16.875 15.6896V20.8303Z" fill="white"/>
</svg>
